<svg version="1.1" xmlns="http://www.w3.org/2000/svg" xmlns:xlink="http://www.w3.org/1999/xlink" width="405.76007" height="207.80425" viewBox="0,0,405.76007,207.80425"><defs><linearGradient x1="116.78005" y1="248.0375" x2="116.78005" y2="298.4125" gradientUnits="userSpaceOnUse" id="color-1"><stop offset="0" stop-color="#000000"/><stop offset="1" stop-color="#000000" stop-opacity="0"/></linearGradient><linearGradient x1="105.83942" y1="282.1375" x2="105.83942" y2="283.6875" gradientUnits="userSpaceOnUse" id="color-2"><stop offset="0" stop-color="#000000"/><stop offset="1" stop-color="#000000" stop-opacity="0"/></linearGradient><linearGradient x1="137.70995" y1="264.3125" x2="137.70995" y2="268.9625" gradientUnits="userSpaceOnUse" id="color-3"><stop offset="0" stop-color="#000000"/><stop offset="1" stop-color="#000000" stop-opacity="0"/></linearGradient><linearGradient x1="222.3809" y1="246.4875" x2="222.3809" y2="297.6375" gradientUnits="userSpaceOnUse" id="color-4"><stop offset="0" stop-color="#000000"/><stop offset="1" stop-color="#000000" stop-opacity="0"/></linearGradient><linearGradient x1="218.09979" y1="275.9375" x2="218.09979" y2="297.6375" gradientUnits="userSpaceOnUse" id="color-5"><stop offset="0" stop-color="#000000"/><stop offset="1" stop-color="#000000" stop-opacity="0"/></linearGradient><linearGradient x1="214.29435" y1="255.7875" x2="214.29435" y2="270.5125" gradientUnits="userSpaceOnUse" id="color-6"><stop offset="0" stop-color="#000000"/><stop offset="1" stop-color="#000000" stop-opacity="0"/></linearGradient><linearGradient x1="257.14563" y1="248.0375" x2="257.14563" y2="298.4125" gradientUnits="userSpaceOnUse" id="color-7"><stop offset="0" stop-color="#000000"/><stop offset="1" stop-color="#000000" stop-opacity="0"/></linearGradient><linearGradient x1="254.72711" y1="265.8625" x2="254.72711" y2="278.2625" gradientUnits="userSpaceOnUse" id="color-8"><stop offset="0" stop-color="#000000"/><stop offset="1" stop-color="#000000" stop-opacity="0"/></linearGradient><linearGradient x1="298.96531" y1="248.0375" x2="298.96531" y2="299.9625" gradientUnits="userSpaceOnUse" id="color-9"><stop offset="0" stop-color="#000000"/><stop offset="1" stop-color="#000000" stop-opacity="0"/></linearGradient><linearGradient x1="292.78148" y1="255.0125" x2="292.78148" y2="282.1375" gradientUnits="userSpaceOnUse" id="color-10"><stop offset="0" stop-color="#000000"/><stop offset="1" stop-color="#000000" stop-opacity="0"/></linearGradient><linearGradient x1="344.15487" y1="244.9375" x2="344.15487" y2="296.8625" gradientUnits="userSpaceOnUse" id="color-11"><stop offset="0" stop-color="#000000"/><stop offset="1" stop-color="#000000" stop-opacity="0"/></linearGradient><linearGradient x1="332.26288" y1="246.4875" x2="332.26288" y2="272.8375" gradientUnits="userSpaceOnUse" id="color-12"><stop offset="0" stop-color="#000000"/><stop offset="1" stop-color="#000000" stop-opacity="0"/></linearGradient><linearGradient x1="355.0955" y1="247.2625" x2="355.0955" y2="272.0625" gradientUnits="userSpaceOnUse" id="color-13"><stop offset="0" stop-color="#000000"/><stop offset="1" stop-color="#000000" stop-opacity="0"/></linearGradient><linearGradient x1="173.86159" y1="243" x2="173.86159" y2="305" gradientUnits="userSpaceOnUse" id="color-14"><stop offset="0" stop-color="#000000"/><stop offset="1" stop-color="#000000" stop-opacity="0"/></linearGradient><linearGradient x1="169.58047" y1="243.775" x2="169.58047" y2="272.45" gradientUnits="userSpaceOnUse" id="color-15"><stop offset="0" stop-color="#000000"/><stop offset="1" stop-color="#000000" stop-opacity="0"/></linearGradient><linearGradient x1="176.23999" y1="283.3" x2="176.23999" y2="301.125" gradientUnits="userSpaceOnUse" id="color-16"><stop offset="0" stop-color="#000000"/><stop offset="1" stop-color="#000000" stop-opacity="0"/></linearGradient><linearGradient x1="391.24714" y1="245.325" x2="391.24714" y2="298.025" gradientUnits="userSpaceOnUse" id="color-17"><stop offset="0" stop-color="#000000"/><stop offset="1" stop-color="#000000" stop-opacity="0"/></linearGradient><linearGradient x1="383.63627" y1="274" x2="383.63627" y2="276.325" gradientUnits="userSpaceOnUse" id="color-18"><stop offset="0" stop-color="#000000"/><stop offset="1" stop-color="#000000" stop-opacity="0"/></linearGradient><linearGradient x1="399.80937" y1="262.22738" x2="399.80937" y2="262.52262" gradientUnits="userSpaceOnUse" id="color-19"><stop offset="0" stop-color="#000000"/><stop offset="1" stop-color="#000000" stop-opacity="0"/></linearGradient></defs><g transform="translate(-46.08543,-97.19575)"><g data-paper-data="{&quot;isPaintingLayer&quot;:true}" fill-rule="nonzero" stroke="#000000" stroke-linecap="round" stroke-linejoin="miter" stroke-miterlimit="10" stroke-dasharray="" stroke-dashoffset="0" style="mix-blend-mode: normal"><path d="M121.7189,189.22449l-8,-31l128.7811,-6.22449l127,-2l8,62l37,7l-9,33l-271,10l-69,-30l55,-18l-24,-55" fill="#000000" stroke-width="1"/><path d="M204.51428,208.94937l2,12l-8,1.33334l-1.66666,-12z" fill="#0021d9" stroke-width="0.5"/><path d="M223.18095,207.94937l0.66667,13l-14.33334,2.33334l-2.66666,-15z" fill="#0021d9" stroke-width="0.5"/><path d="M215.09611,213.75152l2,9.33333" fill="none" stroke-width="0.5"/><path d="M230.09611,214.41819l-1.33334,-5.33334l20.66666,-2.66666l-1,5.33333l-5.66666,0.66667l3.66666,8.33333l-12.66666,1l0.33334,-9.33333z" fill="#0021d9" stroke-width="0.5"/><path d="M261.81905,205.05063v15l-12.66667,1l1,-13z" fill="#0021d9" stroke-width="0.5"/><path d="M280.81905,206.05063l-1.66667,14.33333l-14.66666,-1l1,-13z" fill="#0021d9" stroke-width="0.5"/><path d="M255.15238,220.7173v-7.33334" fill="none" stroke-width="0.5"/><path d="M255.81905,210.05064v-3.33334" fill="none" stroke-width="0.5"/><path d="M273.15238,211.38396l8,0.33334" fill="none" stroke-width="0.5"/><path d="M282.48572,216.05063l-10.33334,-1" fill="none" stroke-width="0.5"/><g stroke-width="0"><path d="M78.25,255.0125l71.35193,-6.975l5.70815,50.375l-55.17882,-0.775z" fill="url(#color-1)"/><path d="M94.42311,283.6875l22.83261,-1.55" fill="url(#color-2)"/><path d="M151.50465,264.3125l-27.58942,4.65" fill="url(#color-3)"/><path d="M200.02397,296.8625l-1.90272,-50.375l35.20029,2.325l13.31903,48.825z" fill="url(#color-4)"/><path d="M220.00251,297.6375l-3.80544,-21.7" fill="url(#color-5)"/><path d="M213.34299,255.7875l1.90272,14.725" fill="url(#color-6)"/><path d="M274.31023,255.06082l-1.03161,38.70168l-21.88126,4.65l-11.41631,-50.375z" fill="url(#color-7)"/><path d="M253.30007,265.8625l2.85408,12.4" fill="url(#color-8)"/><path d="M308.4789,248.0375l13.31903,48.825l-45.66524,3.1l0.95136,-48.05z" fill="url(#color-9)"/><path d="M293.25716,282.1375l-0.95136,-27.125" fill="url(#color-10)"/><path d="M376.0254,244.9375l-5.70815,49.6l-44.71388,2.325l-13.31903,-48.05z" fill="url(#color-11)"/><path d="M336.06831,272.8375l-7.61087,-26.35" fill="url(#color-12)"/><path d="M353.19278,272.0625l3.80543,-24.8" fill="url(#color-13)"/><path d="M190.98606,243l3.80544,55.025l-36.15165,6.975l-5.70816,-58.125z" fill="url(#color-14)"/><path d="M171.00751,272.45l-2.85407,-28.675" fill="url(#color-15)"/><path d="M178.61838,301.125l-4.75679,-17.825" fill="url(#color-16)"/><path d="M410.75,245.325l-6.65951,50.375l-32.3462,2.325l9.51359,-49.6z" fill="url(#color-17)"/><path d="M376.50108,274l14.27038,2.325" fill="url(#color-18)"/><path d="M406.94457,262.375h-14.27039" fill="url(#color-19)"/></g><path d="M267.50001,142.5l112,-45l72,98l-45,35l-54,-103l-80,27z" fill="#000000" stroke-width="0.5"/><path d="M225.50001,156.5l-80,-27l-54,103l-45,-35l72,-98l112,45z" data-paper-data="{&quot;index&quot;:null}" fill="#000000" stroke-width="0.6"/><path d="M158.7189,157.22449l3,45l-24,2l-2,-48z" fill="#d60f01" stroke-width="0.6"/><path d="M147.74875,156.78432l0.66667,29" fill="none" stroke-width="0.6"/><path d="M161.41543,157.45098h33.33333l-4.33333,16.66667l-16.33333,13.66667l17.33333,-1.66667l5,17l-31,-2.33333l-3.33333,-22.33334l16,-7.33333l-15.66667,2.33333z" fill="#d60f01" stroke-width="0.6"/><path d="M208.74876,170.78432l2.33334,34.33333l-11.33334,-0.33333l-6.33333,-30.66667z" fill="#d60f01" stroke-width="0.6"/><path d="M211.41543,155.45098l-2.33333,12.66667l-14.66667,2.33333l2.66667,-13.33333z" fill="#d60f01" stroke-width="0.6"/><path d="M225.42186,171.57704l-1.66666,34.66666l-8.66666,-0.66666l-1.66667,-35z" data-paper-data="{&quot;index&quot;:null}" fill="#d60f01" stroke-width="0.6"/><path d="M224.00882,156.72921l1.7826,12.18116l-11.58695,-0.8913l-1.78261,-12.77536z" data-paper-data="{&quot;index&quot;:null}" fill="#d60f01" stroke-width="0.6"/><path d="M261.32266,171.75524l-15.34943,-1.73767l15.34943,15.34942l0.57923,16.50788l-30.98847,0.86884l-2.31689,-22.58973l12.16369,2.89612l-14.7702,-22.87934l32.43653,-3.47535z" data-paper-data="{&quot;index&quot;:null}" fill="#d60f01" stroke-width="0.6"/><path d="M291.90898,152.68971l-4.34418,50.97169l-22.0105,0.57922l-1.73767,-45.46906z" fill="#d60f01" stroke-width="0.6"/><path d="M276.84917,188.89119l-0.57922,-33.01575" fill="none" stroke-width="0.6"/><path d="M301.08006,162.96118l0.28962,13.32215l-9.84681,0.28961l2.02729,-24.90662l27.80274,0.28961l-1.15845,28.09235l-10.71564,-0.57922l0.57922,-14.77021l3.47534,14.19098l-0.28962,24.03778l-17.95593,-0.28961l1.15845,-26.35468z" fill="#d60f01" stroke-width="0.6"/><path d="M296.44627,176.28332l-1.15845,26.35468l17.95593,0.28961l0.28962,-24.03778l-3.47534,-14.19098l-0.57922,14.77021l10.71564,0.57922l1.15845,-28.09235l-27.80274,-0.28961l-2.02729,24.90662l9.84681,-0.28961l-0.28962,-13.32215z" fill="#d60f01" stroke-width="0"/><path d="M329.80358,157.32476l-7.81952,0.86883" fill="none" stroke-width="0.6"/><path d="M330.52409,154.93127l-9.84681,0.86884" data-paper-data="{&quot;index&quot;:null}" fill="none" stroke-width="0.6"/><path d="M371.385,164.89191l2.89612,46.04828l-22.01051,-2.02728l4.05457,-40.83527z" fill="#d60f01" stroke-width="0.6"/><path d="M371.09539,151.85937v9.55719l-15.63904,3.47535l-1.44806,-11.87409z" fill="#d60f01" stroke-width="0.6"/><path d="M65.25,230.5l75,-9l6,65l-58,-1z" fill="#9c00d9" stroke-width="1"/><path d="M82.25,267.5l24,-2" fill="none" stroke-width="1"/><path d="M142.25,242.5l-29,6" fill="none" stroke-width="1"/><path d="M193.25,288.5l-2,-65l37,3l14,63z" fill="#9c00d9" stroke-width="1"/><path d="M210.25,261.5l4,28" fill="none" stroke-width="1"/><path d="M207.25,235.5l2,19" fill="none" stroke-width="1"/><path d="M270.33435,233.56234l-1.08435,49.93766l-23,6l-12,-65z" fill="#9c00d9" stroke-width="1"/><path d="M248.25,247.5l3,16" fill="none" stroke-width="1"/><path d="M307.25,221.5l14,63l-48,4l1,-62z" fill="#9c00d9" stroke-width="1"/><path d="M291.25,265.5l-1,-35" fill="none" stroke-width="1"/><path d="M378.25,217.5l-6,64l-47,3l-14,-62z" fill="#9c00d9" stroke-width="1"/><path d="M328.25,219.5l8,34" fill="none" stroke-width="1"/><path d="M358.25,220.5l-4,32" fill="none" stroke-width="1"/><path d="M183.75,215l4,71l-38,9l-6,-75z" fill="#9c00d9" stroke-width="0"/><path d="M159.75,216l3,37" fill="none" stroke-width="1"/><path d="M165.75,267l5,23" fill="none" stroke-width="1"/><path d="M414.75,218l-7,65l-34,3l10,-64z" fill="#9c00d9" stroke-width="1"/><path d="M378.75,255l15,3" fill="none" stroke-width="1"/><path d="M410.75,240h-15" fill="none" stroke-width="0.5"/><path d="M348.73467,185.2498l1.73767,22.87933l-30.98847,-0.86883l-1.44806,-57.63275l30.40925,1.44805z" data-paper-data="{&quot;index&quot;:null}" fill="#d60f01" stroke-width="0.6"/><path d="M335.70214,193.06932l0.2896,-8.68836l13.90137,0.28961" data-paper-data="{&quot;index&quot;:null}" fill="none" stroke-width="0.6"/><path d="M318.90465,170.18998l14.48059,0.57922" data-paper-data="{&quot;index&quot;:null}" fill="none" stroke-width="0.6"/><path d="M131.7189,161.22449l3,42l-23,-13l-6,-30z" fill="#d60f01" stroke-width="0.6"/><path d="M120.3126,168.48299l2.33333,18" fill="none" stroke-width="0.6"/></g></g></svg>