<svg version="1.1" xmlns="http://www.w3.org/2000/svg" xmlns:xlink="http://www.w3.org/1999/xlink" width="326.38737" height="247.11798" viewBox="0,0,326.38737,247.11798"><g transform="translate(-88.18658,-43.94447)"><g data-paper-data="{&quot;isPaintingLayer&quot;:true}" fill-rule="nonzero" stroke-linejoin="miter" stroke-miterlimit="10" stroke-dasharray="" stroke-dashoffset="0" style="mix-blend-mode: normal"><text transform="translate(113.95891,254.07995) scale(1.85449,1.85449)" font-size="40" xml:space="preserve" fill="#000000" fill-rule="nonzero" stroke="#000000" stroke-width="4" stroke-linecap="butt" stroke-linejoin="miter" stroke-miterlimit="10" stroke-dasharray="" stroke-dashoffset="0" font-family="Sans Serif" font-weight="normal" text-anchor="start" style="mix-blend-mode: normal"><tspan x="0" dy="0">#</tspan></text><text transform="translate(258.52574,137.45612) rotate(50.68142) scale(3.03961,3.03961)" font-size="40" xml:space="preserve" fill="#000000" fill-rule="nonzero" stroke="#000000" stroke-width="5" stroke-linecap="butt" stroke-linejoin="miter" stroke-miterlimit="10" stroke-dasharray="" stroke-dashoffset="0" font-family="Sans Serif" font-weight="normal" text-anchor="start" style="mix-blend-mode: normal"><tspan x="0" dy="0">*</tspan></text><text transform="translate(97.78643,223.85827) scale(3.83994,3.83994)" font-size="40" xml:space="preserve" fill="#000000" fill-rule="nonzero" stroke="#000000" stroke-width="5" stroke-linecap="butt" stroke-linejoin="miter" stroke-miterlimit="10" stroke-dasharray="" stroke-dashoffset="0" font-family="Sans Serif" font-weight="normal" text-anchor="start" style="mix-blend-mode: normal"><tspan x="0" dy="0">*</tspan></text><g fill="#000000" stroke-width="2.5" stroke-linecap="round"><path d="M193.95891,241.20738l9,-19l22,5l-6,62l-20,-9z" stroke="#000000"/><path d="M173.95891,133.20738l46,2l-8,73l-46,-6z" stroke="#000000"/><path d="M136.95891,135.20738l12,87l33,-39l-13,-56z" stroke="#000000"/><path d="M156.95891,145.20738l4,33" stroke="#000000"/><path d="M193.95891,131.20738l-4,51" stroke="#000000"/><path d="M263.95891,122.20738l-41,29l1,59l48,-1z" stroke="#000000"/><path d="M266.95891,171.20738l-24,5" stroke="#000000"/><path d="M267.95891,113.20738l12,101l51,3l-21,-52l27,-65z" stroke="#000000"/><path d="M296.95891,106.20738v48" stroke="#000000"/><path d="M296.95891,174.20738l9,40" stroke="#000000"/><path d="M165.95891,211.20738l-16,66l55,1l-4,-39l-26,10l15,-36z" stroke="#000000"/><path d="M208.95891,220.20738l16,1l-1,-7h-18z" stroke="#ffffff"/><path d="M232.95891,215.20738l-8,68l28,-2l-8,-24l33,-6l-4,-36z" stroke="#000000"/><path d="M248.95891,235.20738l28,-3" stroke="#000000"/><path d="M284.95891,225.20738l-6,49l31,-2l3,-46z" stroke="#000000"/><path d="M292.95891,240.20738l17,-1" stroke="#000000"/><path d="M291.95891,256.20738l19,-3" stroke="#000000"/><path d="M327.95891,221.20738l-9,36l23,3l8,-44z" stroke="#000000"/><path d="M337.95891,262.20738h-22l1,16l21,-3z" stroke="#000000"/><path d="M205.95891,217.20738l20,4l1,-10l-23,-1z" stroke="#000000"/></g><g fill="#ffffff" stroke="#000000" stroke-width="2" stroke-linecap="round"><path d="M196.95891,234.20738l9,-19l22,5l-6,62l-20,-9z"/><path d="M176.95891,126.20738l46,2l-8,73l-46,-6z"/><path d="M139.95891,128.20738l12,87l33,-39l-13,-56z"/><path d="M159.95891,138.20738l4,33"/><path d="M196.95891,124.20738l-4,51"/><path d="M266.95891,115.20738l-41,29l1,59l48,-1z"/><path d="M269.95891,164.20738l-24,5"/><path d="M270.95891,106.20738l12,101l51,3l-21,-52l27,-65z"/><path d="M299.95891,99.20738v48"/><path d="M299.95891,167.20738l9,40"/><path d="M168.95891,204.20738l-16,66l55,1l-4,-39l-26,10l15,-36z"/><path d="M235.95891,208.20738l-8,68l28,-2l-8,-24l33,-6l-4,-36z"/><path d="M251.95891,228.20738l28,-3"/><path d="M287.95891,218.20738l-6,49l31,-2l3,-46z"/><path d="M295.95891,233.20738l17,-1"/><path d="M294.95891,249.20738l19,-3"/><path d="M330.95891,214.20738l-9,36l23,3l8,-44z"/><path d="M340.95891,255.20738h-22l1,16l21,-3z"/><path d="M208.95891,210.20738l20,4l1,-10l-23,-1z"/></g></g></g></svg>