<svg version="1.1" xmlns="http://www.w3.org/2000/svg" xmlns:xlink="http://www.w3.org/1999/xlink" width="338.47185" height="347.17911" viewBox="0,0,338.47185,347.17911"><defs><radialGradient cx="269.1023" cy="248.58309" r="120.30459" gradientUnits="userSpaceOnUse" id="color-1"><stop offset="0" stop-color="#aaaaaa"/><stop offset="1" stop-color="#aaaaaa" stop-opacity="0"/></radialGradient></defs><g transform="translate(-77.62848,-18.43963)"><g data-paper-data="{&quot;isPaintingLayer&quot;:true}" fill-rule="nonzero" stroke-linejoin="miter" stroke-miterlimit="10" stroke-dasharray="" stroke-dashoffset="0" style="mix-blend-mode: normal"><path d="M350.98629,283.27621c0,0 -53.3777,-1.16445 -86.93375,-7.36503c-43.19527,-7.98173 -99.17041,-32.11383 -99.17041,-32.11383l16.11996,-29.46354c0,0 56.38494,0.12766 93.14996,6.9212c36.61058,6.765 89.21233,26.6971 89.21233,26.6971z" fill="url(#color-1)" stroke="none" stroke-width="0" stroke-linecap="butt"/><path d="M138.1023,194.43963l-13.05236,-77.04493l13.98186,-22.70719l96.97993,10.57386l20.74116,-19.20093l-1.62194,-16.69353l33.97135,-50.92728l53,13l5.25848,25.79159l-13.51206,37.94643l-8.5977,2.12846l-8.20229,24.20108c0,0 40.16023,1.15337 40.41745,2.70658c3.87043,23.37141 10.63613,64.22586 10.63613,64.22586c0,0 -3.36164,44.2703 -13.98572,44.54745c-33.52876,0.87466 -216.01428,-38.54745 -216.01428,-38.54745z" fill="#412600" stroke="none" stroke-width="0" stroke-linecap="butt"/><path d="M145.1023,197.43963l212,44l-16,-88l-217,-38z" fill="#030000" stroke="#000000" stroke-width="0.5" stroke-linecap="round"/><path d="M354.1023,237.43963l14,-44l-12,-68l-16,30" fill="none" stroke="#000000" stroke-width="0.5" stroke-linecap="round"/><path d="M355.1023,125.43963l-219,-32l-11,21" fill="none" stroke="#000000" stroke-width="0.5" stroke-linecap="round"/><path d="M240.1023,107.43963l14,-20l-1,-18l34,-46l57,11l-21,47l-4,15l-11,21" fill="none" stroke="#000000" stroke-width="0.5" stroke-linecap="round"/><path d="M314.1023,122.43963l6,-13l3.06101,-13.27056l7.93899,-2.72944l14,-37l-1,-22" fill="none" stroke="#000000" stroke-width="0.5" stroke-linecap="round"/><text transform="translate(242.74084,196.79796) rotate(7.63259) scale(0.9374,1.30459) skewX(12.27209)" font-size="40" xml:space="preserve" fill="#ff0000" fill-rule="nonzero" stroke="none" stroke-width="1" stroke-linecap="butt" stroke-linejoin="miter" stroke-miterlimit="10" stroke-dasharray="" stroke-dashoffset="0" font-family="Sans Serif" font-weight="normal" text-anchor="start" style="mix-blend-mode: normal"><tspan x="0" dy="0">THE</tspan></text><text transform="translate(175.74084,187.79796) rotate(7.63259) scale(0.9374,1.30459) skewX(12.27209)" font-size="40" xml:space="preserve" fill="#ff0000" fill-rule="nonzero" stroke="none" stroke-width="1" stroke-linecap="butt" stroke-linejoin="miter" stroke-miterlimit="10" stroke-dasharray="" stroke-dashoffset="0" font-family="Sans Serif" font-weight="normal" text-anchor="start" style="mix-blend-mode: normal"><tspan x="0" dy="0">BE</tspan></text><path d="M302.069,361.09966l-43.50739,-21.35667c0,0 29.58817,13.33331 56.9329,19.76403c16.11561,3.78995 58.78782,3.82273 60.61822,1.4492c3.12517,-4.05247 5.74341,-7.7531 6.96099,-10.18532c0.42444,-0.84786 -35.87584,-19.05547 -25.83279,-36.58172c9.28299,-16.19985 65.29621,-31.81756 58.24783,-32.60593c-4.59716,-0.5142 -64.77993,13.18296 -78.61379,32.45171c-8.96789,12.4911 28.21083,33.12122 22.24255,34.08829c-28.85261,4.67512 -58.33015,-11.73308 -67.60049,-18.66235c-23.72409,-17.73296 -1.03403,-53.4833 -1.03403,-53.4833c0,0 -5.46978,-14.50473 -11.26786,-21.24901c-5.26884,-6.12866 -22.08511,-17.54686 -22.08511,-17.54686l-30.23895,-6.06707c0,0 -28.88578,-5.82804 -35.77713,-2.50779c-6.22688,3.00011 -15.78003,18.56641 -15.78003,18.56641c0,0 -15.67953,22.91778 -18.03797,29.91569c-3.33696,9.90131 -0.0876,23.86594 -0.0876,23.86594l-46.24657,1.50152c0,0 -28.3835,45.97328 -33.303,59.64508c-3.04453,8.46106 224.41023,-1.00186 224.41023,-1.00186z" fill="#1e1e1e" stroke="#000000" stroke-width="0" stroke-linecap="round"/><text transform="translate(117.32327,286.59588) rotate(13.09292) scale(1.69828,1.37808) skewX(-5.4589)" font-size="40" xml:space="preserve" fill="#ff0000" fill-rule="nonzero" stroke="none" stroke-width="1" stroke-linecap="butt" stroke-linejoin="miter" stroke-miterlimit="10" stroke-dasharray="" stroke-dashoffset="0" font-family="Sans Serif" font-weight="normal" text-anchor="start" style="mix-blend-mode: normal"><tspan x="0" dy="0">COPY</tspan></text></g></g></svg>